<?xml version="1.0" encoding="UTF-8" standalone="no"?>
<!DOCTYPE svg PUBLIC "-//W3C//DTD SVG 1.1//EN"
 "http://www.w3.org/Graphics/SVG/1.1/DTD/svg11.dtd">
<!-- Generated by graphviz version 2.47.0 (20210316.0004)
 -->
<!-- Title: dependencies Pages: 1 -->
<svg width="767pt" height="211pt"
 viewBox="0.00 0.00 767.00 211.00" xmlns="http://www.w3.org/2000/svg" xmlns:xlink="http://www.w3.org/1999/xlink">
<g id="graph0" class="graph" transform="scale(1 1) rotate(0) translate(4 207)">
<title>dependencies</title>
<polygon fill="white" stroke="transparent" points="-4,4 -4,-207 763,-207 763,4 -4,4"/>
<text text-anchor="start" x="358.51" y="-42.4" font-family="Times-12" font-weight="bold" font-size="14.00">Legend</text>
<polygon fill="#ffffb3" stroke="transparent" points="145.5,-10 145.5,-30 165.5,-30 165.5,-10 145.5,-10"/>
<text text-anchor="start" x="169.13" y="-15.4" font-family="Times-12" font-size="14.00"> &#160;Declarations</text>
<polygon fill="#8dd3c7" stroke="transparent" points="258.5,-10 258.5,-30 278.5,-30 278.5,-10 258.5,-10"/>
<text text-anchor="start" x="282.23" y="-15.4" font-family="Times-12" font-size="14.00"> &#160;Module</text>
<polygon fill="#80b1d3" stroke="transparent" points="344.5,-10 344.5,-30 364.5,-30 364.5,-10 344.5,-10"/>
<text text-anchor="start" x="368.28" y="-15.4" font-family="Times-12" font-size="14.00"> &#160;Bootstrap</text>
<polygon fill="#fdb462" stroke="transparent" points="441.5,-10 441.5,-30 461.5,-30 461.5,-10 441.5,-10"/>
<text text-anchor="start" x="465.17" y="-15.4" font-family="Times-12" font-size="14.00"> &#160;Providers</text>
<polygon fill="#fb8072" stroke="transparent" points="537.5,-10 537.5,-30 557.5,-30 557.5,-10 537.5,-10"/>
<text text-anchor="start" x="561.23" y="-15.4" font-family="Times-12" font-size="14.00"> &#160;Exports</text>
<g id="clust1" class="cluster">
<title>cluster_SearchModule</title>
<polygon fill="none" stroke="black" stroke-dasharray="1,5" points="8,-70 8,-195 751,-195 751,-70 8,-70"/>
</g>
<g id="clust6" class="cluster">
<title>cluster_SearchModule_providers</title>
<polygon fill="none" stroke="black" points="595,-78 595,-130 743,-130 743,-78 595,-78"/>
</g>
<g id="clust3" class="cluster">
<title>cluster_SearchModule_imports</title>
<polygon fill="none" stroke="black" points="16,-78 16,-130 587,-130 587,-78 16,-78"/>
</g>
<!-- ChatModule -->
<g id="node1" class="node">
<title>ChatModule</title>
<polygon fill="#8dd3c7" stroke="black" points="578.99,-122 575.99,-126 554.99,-126 551.99,-122 493.01,-122 493.01,-86 578.99,-86 578.99,-122"/>
<text text-anchor="middle" x="536" y="-99.8" font-family="Times,serif" font-size="14.00">ChatModule</text>
</g>
<!-- SearchModule -->
<g id="node6" class="node">
<title>SearchModule</title>
<polygon fill="#8dd3c7" stroke="black" points="411.64,-187 408.64,-191 387.64,-191 384.64,-187 314.36,-187 314.36,-151 411.64,-151 411.64,-187"/>
<text text-anchor="middle" x="363" y="-164.8" font-family="Times,serif" font-size="14.00">SearchModule</text>
</g>
<!-- ChatModule&#45;&gt;SearchModule -->
<g id="edge1" class="edge">
<title>ChatModule&#45;&gt;SearchModule</title>
<path fill="none" stroke="black" d="M536,-122.02C536,-139.37 536,-163 536,-163 536,-163 421.65,-163 421.65,-163"/>
<polygon fill="black" stroke="black" points="421.65,-159.5 411.65,-163 421.65,-166.5 421.65,-159.5"/>
</g>
<!-- ProductModule -->
<g id="node2" class="node">
<title>ProductModule</title>
<polygon fill="#8dd3c7" stroke="black" points="474.6,-122 471.6,-126 450.6,-126 447.6,-122 371.4,-122 371.4,-86 474.6,-86 474.6,-122"/>
<text text-anchor="middle" x="423" y="-99.8" font-family="Times,serif" font-size="14.00">ProductModule</text>
</g>
<!-- ProductModule&#45;&gt;SearchModule -->
<g id="edge2" class="edge">
<title>ProductModule&#45;&gt;SearchModule</title>
<path fill="none" stroke="black" d="M391.63,-122.11C391.63,-122.11 391.63,-140.99 391.63,-140.99"/>
<polygon fill="black" stroke="black" points="388.13,-140.99 391.63,-150.99 395.13,-140.99 388.13,-140.99"/>
</g>
<!-- ServiceModule -->
<g id="node3" class="node">
<title>ServiceModule</title>
<polygon fill="#8dd3c7" stroke="black" points="353.53,-122 350.53,-126 329.53,-126 326.53,-122 252.47,-122 252.47,-86 353.53,-86 353.53,-122"/>
<text text-anchor="middle" x="303" y="-99.8" font-family="Times,serif" font-size="14.00">ServiceModule</text>
</g>
<!-- ServiceModule&#45;&gt;SearchModule -->
<g id="edge3" class="edge">
<title>ServiceModule&#45;&gt;SearchModule</title>
<path fill="none" stroke="black" d="M333.97,-122.11C333.97,-122.11 333.97,-140.99 333.97,-140.99"/>
<polygon fill="black" stroke="black" points="330.47,-140.99 333.97,-150.99 337.47,-140.99 330.47,-140.99"/>
</g>
<!-- SupplierModule -->
<g id="node4" class="node">
<title>SupplierModule</title>
<polygon fill="#8dd3c7" stroke="black" points="234.49,-122 231.49,-126 210.49,-126 207.49,-122 127.51,-122 127.51,-86 234.49,-86 234.49,-122"/>
<text text-anchor="middle" x="181" y="-99.8" font-family="Times,serif" font-size="14.00">SupplierModule</text>
</g>
<!-- SupplierModule&#45;&gt;SearchModule -->
<g id="edge4" class="edge">
<title>SupplierModule&#45;&gt;SearchModule</title>
<path fill="none" stroke="black" d="M181,-122.02C181,-139.37 181,-163 181,-163 181,-163 304.23,-163 304.23,-163"/>
<polygon fill="black" stroke="black" points="304.23,-166.5 314.23,-163 304.23,-159.5 304.23,-166.5"/>
</g>
<!-- UserModule -->
<g id="node5" class="node">
<title>UserModule</title>
<polygon fill="#8dd3c7" stroke="black" points="109.98,-122 106.98,-126 85.98,-126 82.98,-122 24.02,-122 24.02,-86 109.98,-86 109.98,-122"/>
<text text-anchor="middle" x="67" y="-99.8" font-family="Times,serif" font-size="14.00">UserModule</text>
</g>
<!-- UserModule&#45;&gt;SearchModule -->
<g id="edge5" class="edge">
<title>UserModule&#45;&gt;SearchModule</title>
<path fill="none" stroke="black" d="M67,-122.28C67,-143.32 67,-175 67,-175 67,-175 304.12,-175 304.12,-175"/>
<polygon fill="black" stroke="black" points="304.12,-178.5 314.12,-175 304.12,-171.5 304.12,-178.5"/>
</g>
<!-- SearchService -->
<g id="node7" class="node">
<title>SearchService</title>
<ellipse fill="#fdb462" stroke="black" cx="669" cy="-104" rx="66.03" ry="18"/>
<text text-anchor="middle" x="669" y="-99.8" font-family="Times,serif" font-size="14.00">SearchService</text>
</g>
<!-- SearchService&#45;&gt;SearchModule -->
<g id="edge6" class="edge">
<title>SearchService&#45;&gt;SearchModule</title>
<path fill="none" stroke="black" d="M669,-122.28C669,-143.32 669,-175 669,-175 669,-175 421.82,-175 421.82,-175"/>
<polygon fill="black" stroke="black" points="421.83,-171.5 411.82,-175 421.82,-178.5 421.83,-171.5"/>
</g>
</g>
</svg>
