<?xml version="1.0" encoding="UTF-8" standalone="no"?>
<!DOCTYPE svg PUBLIC "-//W3C//DTD SVG 1.1//EN"
 "http://www.w3.org/Graphics/SVG/1.1/DTD/svg11.dtd">
<!-- Generated by graphviz version 2.47.0 (20210316.0004)
 -->
<!-- Title: dependencies Pages: 1 -->
<svg width="767pt" height="211pt"
 viewBox="0.00 0.00 767.00 211.00" xmlns="http://www.w3.org/2000/svg" xmlns:xlink="http://www.w3.org/1999/xlink">
<g id="graph0" class="graph" transform="scale(1 1) rotate(0) translate(4 207)">
<title>dependencies</title>
<polygon fill="white" stroke="transparent" points="-4,4 -4,-207 763,-207 763,4 -4,4"/>
<text text-anchor="start" x="358.51" y="-42.4" font-family="Times-12" font-weight="bold" font-size="14.00">Legend</text>
<polygon fill="#ffffb3" stroke="transparent" points="145.5,-10 145.5,-30 165.5,-30 165.5,-10 145.5,-10"/>
<text text-anchor="start" x="169.13" y="-15.4" font-family="Times-12" font-size="14.00"> &#160;Declarations</text>
<polygon fill="#8dd3c7" stroke="transparent" points="258.5,-10 258.5,-30 278.5,-30 278.5,-10 258.5,-10"/>
<text text-anchor="start" x="282.23" y="-15.4" font-family="Times-12" font-size="14.00"> &#160;Module</text>
<polygon fill="#80b1d3" stroke="transparent" points="344.5,-10 344.5,-30 364.5,-30 364.5,-10 344.5,-10"/>
<text text-anchor="start" x="368.28" y="-15.4" font-family="Times-12" font-size="14.00"> &#160;Bootstrap</text>
<polygon fill="#fdb462" stroke="transparent" points="441.5,-10 441.5,-30 461.5,-30 461.5,-10 441.5,-10"/>
<text text-anchor="start" x="465.17" y="-15.4" font-family="Times-12" font-size="14.00"> &#160;Providers</text>
<polygon fill="#fb8072" stroke="transparent" points="537.5,-10 537.5,-30 557.5,-30 557.5,-10 537.5,-10"/>
<text text-anchor="start" x="561.23" y="-15.4" font-family="Times-12" font-size="14.00"> &#160;Exports</text>
<g id="clust1" class="cluster">
<title>cluster_SearchModule</title>
<polygon fill="none" stroke="black" stroke-dasharray="1,5" points="8,-70 8,-195 751,-195 751,-70 8,-70"/>
</g>
<g id="clust3" class="cluster">
<title>cluster_SearchModule_imports</title>
<polygon fill="none" stroke="black" points="172,-78 172,-130 743,-130 743,-78 172,-78"/>
</g>
<g id="clust6" class="cluster">
<title>cluster_SearchModule_providers</title>
<polygon fill="none" stroke="black" points="16,-78 16,-130 164,-130 164,-78 16,-78"/>
</g>
<!-- ChatModule -->
<g id="node1" class="node">
<title>ChatModule</title>
<polygon fill="#8dd3c7" stroke="black" points="734.99,-122 731.99,-126 710.99,-126 707.99,-122 649.01,-122 649.01,-86 734.99,-86 734.99,-122"/>
<text text-anchor="middle" x="692" y="-99.8" font-family="Times,serif" font-size="14.00">ChatModule</text>
</g>
<!-- SearchModule -->
<g id="node6" class="node">
<title>SearchModule</title>
<polygon fill="#8dd3c7" stroke="black" points="446.64,-187 443.64,-191 422.64,-191 419.64,-187 349.36,-187 349.36,-151 446.64,-151 446.64,-187"/>
<text text-anchor="middle" x="398" y="-164.8" font-family="Times,serif" font-size="14.00">SearchModule</text>
</g>
<!-- ChatModule&#45;&gt;SearchModule -->
<g id="edge1" class="edge">
<title>ChatModule&#45;&gt;SearchModule</title>
<path fill="none" stroke="black" d="M692,-122.28C692,-143.32 692,-175 692,-175 692,-175 456.88,-175 456.88,-175"/>
<polygon fill="black" stroke="black" points="456.88,-171.5 446.88,-175 456.88,-178.5 456.88,-171.5"/>
</g>
<!-- ProductModule -->
<g id="node2" class="node">
<title>ProductModule</title>
<polygon fill="#8dd3c7" stroke="black" points="630.6,-122 627.6,-126 606.6,-126 603.6,-122 527.4,-122 527.4,-86 630.6,-86 630.6,-122"/>
<text text-anchor="middle" x="579" y="-99.8" font-family="Times,serif" font-size="14.00">ProductModule</text>
</g>
<!-- ProductModule&#45;&gt;SearchModule -->
<g id="edge2" class="edge">
<title>ProductModule&#45;&gt;SearchModule</title>
<path fill="none" stroke="black" d="M579,-122.02C579,-139.37 579,-163 579,-163 579,-163 456.98,-163 456.98,-163"/>
<polygon fill="black" stroke="black" points="456.98,-159.5 446.98,-163 456.98,-166.5 456.98,-159.5"/>
</g>
<!-- ServiceModule -->
<g id="node3" class="node">
<title>ServiceModule</title>
<polygon fill="#8dd3c7" stroke="black" points="509.53,-122 506.53,-126 485.53,-126 482.53,-122 408.47,-122 408.47,-86 509.53,-86 509.53,-122"/>
<text text-anchor="middle" x="459" y="-99.8" font-family="Times,serif" font-size="14.00">ServiceModule</text>
</g>
<!-- ServiceModule&#45;&gt;SearchModule -->
<g id="edge3" class="edge">
<title>ServiceModule&#45;&gt;SearchModule</title>
<path fill="none" stroke="black" d="M427.53,-122.11C427.53,-122.11 427.53,-140.99 427.53,-140.99"/>
<polygon fill="black" stroke="black" points="424.03,-140.99 427.53,-150.99 431.03,-140.99 424.03,-140.99"/>
</g>
<!-- SupplierModule -->
<g id="node4" class="node">
<title>SupplierModule</title>
<polygon fill="#8dd3c7" stroke="black" points="390.49,-122 387.49,-126 366.49,-126 363.49,-122 283.51,-122 283.51,-86 390.49,-86 390.49,-122"/>
<text text-anchor="middle" x="337" y="-99.8" font-family="Times,serif" font-size="14.00">SupplierModule</text>
</g>
<!-- SupplierModule&#45;&gt;SearchModule -->
<g id="edge4" class="edge">
<title>SupplierModule&#45;&gt;SearchModule</title>
<path fill="none" stroke="black" d="M369.84,-122.11C369.84,-122.11 369.84,-140.99 369.84,-140.99"/>
<polygon fill="black" stroke="black" points="366.34,-140.99 369.84,-150.99 373.34,-140.99 366.34,-140.99"/>
</g>
<!-- UserModule -->
<g id="node5" class="node">
<title>UserModule</title>
<polygon fill="#8dd3c7" stroke="black" points="265.98,-122 262.98,-126 241.98,-126 238.98,-122 180.02,-122 180.02,-86 265.98,-86 265.98,-122"/>
<text text-anchor="middle" x="223" y="-99.8" font-family="Times,serif" font-size="14.00">UserModule</text>
</g>
<!-- UserModule&#45;&gt;SearchModule -->
<g id="edge5" class="edge">
<title>UserModule&#45;&gt;SearchModule</title>
<path fill="none" stroke="black" d="M223,-122.02C223,-139.37 223,-163 223,-163 223,-163 339.25,-163 339.25,-163"/>
<polygon fill="black" stroke="black" points="339.25,-166.5 349.25,-163 339.25,-159.5 339.25,-166.5"/>
</g>
<!-- SearchService -->
<g id="node7" class="node">
<title>SearchService</title>
<ellipse fill="#fdb462" stroke="black" cx="90" cy="-104" rx="66.03" ry="18"/>
<text text-anchor="middle" x="90" y="-99.8" font-family="Times,serif" font-size="14.00">SearchService</text>
</g>
<!-- SearchService&#45;&gt;SearchModule -->
<g id="edge6" class="edge">
<title>SearchService&#45;&gt;SearchModule</title>
<path fill="none" stroke="black" d="M90,-122.28C90,-143.32 90,-175 90,-175 90,-175 339.2,-175 339.2,-175"/>
<polygon fill="black" stroke="black" points="339.2,-178.5 349.2,-175 339.2,-171.5 339.2,-178.5"/>
</g>
</g>
</svg>
