<?xml version="1.0" encoding="UTF-8" standalone="no"?>
<!DOCTYPE svg PUBLIC "-//W3C//DTD SVG 1.1//EN"
 "http://www.w3.org/Graphics/SVG/1.1/DTD/svg11.dtd">
<!-- Generated by graphviz version 2.47.0 (20210316.0004)
 -->
<!-- Title: dependencies Pages: 1 -->
<svg width="504pt" height="284pt"
 viewBox="0.00 0.00 504.00 284.00" xmlns="http://www.w3.org/2000/svg" xmlns:xlink="http://www.w3.org/1999/xlink">
<g id="graph0" class="graph" transform="scale(1 1) rotate(0) translate(4 280)">
<title>dependencies</title>
<polygon fill="white" stroke="transparent" points="-4,4 -4,-280 500,-280 500,4 -4,4"/>
<text text-anchor="start" x="227.01" y="-42.4" font-family="Times-12" font-weight="bold" font-size="14.00">Legend</text>
<polygon fill="#ffffb3" stroke="transparent" points="14,-10 14,-30 34,-30 34,-10 14,-10"/>
<text text-anchor="start" x="37.63" y="-15.4" font-family="Times-12" font-size="14.00"> &#160;Declarations</text>
<polygon fill="#8dd3c7" stroke="transparent" points="127,-10 127,-30 147,-30 147,-10 127,-10"/>
<text text-anchor="start" x="150.73" y="-15.4" font-family="Times-12" font-size="14.00"> &#160;Module</text>
<polygon fill="#80b1d3" stroke="transparent" points="213,-10 213,-30 233,-30 233,-10 213,-10"/>
<text text-anchor="start" x="236.78" y="-15.4" font-family="Times-12" font-size="14.00"> &#160;Bootstrap</text>
<polygon fill="#fdb462" stroke="transparent" points="310,-10 310,-30 330,-30 330,-10 310,-10"/>
<text text-anchor="start" x="333.67" y="-15.4" font-family="Times-12" font-size="14.00"> &#160;Providers</text>
<polygon fill="#fb8072" stroke="transparent" points="406,-10 406,-30 426,-30 426,-10 406,-10"/>
<text text-anchor="start" x="429.73" y="-15.4" font-family="Times-12" font-size="14.00"> &#160;Exports</text>
<g id="clust1" class="cluster">
<title>cluster_NotificationModule</title>
<polygon fill="none" stroke="black" stroke-dasharray="1,5" points="19,-70 19,-268 477,-268 477,-70 19,-70"/>
</g>
<g id="clust6" class="cluster">
<title>cluster_NotificationModule_providers</title>
<polygon fill="none" stroke="black" points="279,-78 279,-130 469,-130 469,-78 279,-78"/>
</g>
<g id="clust3" class="cluster">
<title>cluster_NotificationModule_imports</title>
<polygon fill="none" stroke="black" points="27,-78 27,-130 271,-130 271,-78 27,-78"/>
</g>
<g id="clust4" class="cluster">
<title>cluster_NotificationModule_exports</title>
<polygon fill="none" stroke="black" points="128,-208 128,-260 274,-260 274,-208 128,-208"/>
</g>
<!-- TranslationModule -->
<g id="node1" class="node">
<title>TranslationModule</title>
<polygon fill="#8dd3c7" stroke="black" points="262.81,-122 259.81,-126 238.81,-126 235.81,-122 139.19,-122 139.19,-86 262.81,-86 262.81,-122"/>
<text text-anchor="middle" x="201" y="-99.8" font-family="Times,serif" font-size="14.00">TranslationModule</text>
</g>
<!-- NotificationModule -->
<g id="node3" class="node">
<title>NotificationModule</title>
<polygon fill="#8dd3c7" stroke="black" points="264.7,-187 261.7,-191 240.7,-191 237.7,-187 137.3,-187 137.3,-151 264.7,-151 264.7,-187"/>
<text text-anchor="middle" x="201" y="-164.8" font-family="Times,serif" font-size="14.00">NotificationModule</text>
</g>
<!-- TranslationModule&#45;&gt;NotificationModule -->
<g id="edge1" class="edge">
<title>TranslationModule&#45;&gt;NotificationModule</title>
<path fill="none" stroke="black" d="M201,-122.11C201,-122.11 201,-140.99 201,-140.99"/>
<polygon fill="black" stroke="black" points="197.5,-140.99 201,-150.99 204.5,-140.99 197.5,-140.99"/>
</g>
<!-- UserModule -->
<g id="node2" class="node">
<title>UserModule</title>
<polygon fill="#8dd3c7" stroke="black" points="120.98,-122 117.98,-126 96.98,-126 93.98,-122 35.02,-122 35.02,-86 120.98,-86 120.98,-122"/>
<text text-anchor="middle" x="78" y="-99.8" font-family="Times,serif" font-size="14.00">UserModule</text>
</g>
<!-- UserModule&#45;&gt;NotificationModule -->
<g id="edge2" class="edge">
<title>UserModule&#45;&gt;NotificationModule</title>
<path fill="none" stroke="black" d="M78,-122.11C78,-141.34 78,-169 78,-169 78,-169 127.34,-169 127.34,-169"/>
<polygon fill="black" stroke="black" points="127.34,-172.5 137.34,-169 127.34,-165.5 127.34,-172.5"/>
</g>
<!-- NotificationService  -->
<g id="node4" class="node">
<title>NotificationService </title>
<polygon fill="#fb8072" stroke="black" points="265.63,-252 136.37,-252 136.37,-216 265.63,-216 265.63,-252"/>
<text text-anchor="middle" x="201" y="-229.8" font-family="Times,serif" font-size="14.00">NotificationService </text>
</g>
<!-- NotificationModule&#45;&gt;NotificationService  -->
<g id="edge3" class="edge">
<title>NotificationModule&#45;&gt;NotificationService </title>
<path fill="none" stroke="black" stroke-dasharray="5,2" d="M201,-187.11C201,-187.11 201,-205.99 201,-205.99"/>
<polygon fill="black" stroke="black" points="197.5,-205.99 201,-215.99 204.5,-205.99 197.5,-205.99"/>
</g>
<!-- NotificationService -->
<g id="node5" class="node">
<title>NotificationService</title>
<ellipse fill="#fdb462" stroke="black" cx="374" cy="-104" rx="86.81" ry="18"/>
<text text-anchor="middle" x="374" y="-99.8" font-family="Times,serif" font-size="14.00">NotificationService</text>
</g>
<!-- NotificationService&#45;&gt;NotificationModule -->
<g id="edge4" class="edge">
<title>NotificationService&#45;&gt;NotificationModule</title>
<path fill="none" stroke="black" d="M374,-122.11C374,-141.34 374,-169 374,-169 374,-169 274.93,-169 274.93,-169"/>
<polygon fill="black" stroke="black" points="274.93,-165.5 264.93,-169 274.93,-172.5 274.93,-165.5"/>
</g>
</g>
</svg>
